<svg xmlns="http://www.w3.org/2000/svg" aria-hidden="true" style="position:absolute;width:0;height:0;overflow:hidden">
  <defs>
    <symbol id="icon-pie-chart-00" viewBox="0 0 32 32">
      <path fill="none" stroke="#323f47" stroke-linecap="round" stroke-linejoin="round" stroke-width="2.667" d="M22.933 18.667c.369 0 .554 0 .704.082a.713.713 0 0 1 .293.324c.067.157.05.324.016.659a10.665 10.665 0 0 1-12.694 9.397 10.67 10.67 0 0 1-8.381-8.381 10.666 10.666 0 0 1 9.397-12.694c.334-.034.502-.05.659.016.13.055.257.17.324.293.082.15.082.334.082.704V17.6c0 .373 0 .56.073.703a.67.67 0 0 0 .291.291c.143.073.329.073.703.073h8.533z" style="stroke:var(--color1, #323f47)"/>
      <path fill="none" stroke="#9be1a0" stroke-linecap="round" stroke-linejoin="round" stroke-width="2.667" d="M18.667 3.733c0-.369 0-.554.082-.704a.713.713 0 0 1 .324-.293c.157-.067.324-.05.659-.016a10.67 10.67 0 0 1 9.549 9.549c.033.334.05.502-.016.659a.704.704 0 0 1-.293.324c-.15.082-.334.082-.704.082h-8.533c-.373 0-.56 0-.703-.073a.67.67 0 0 1-.291-.291c-.073-.143-.073-.329-.073-.703V3.734z" style="stroke:var(--color2, #9be1a0)"/>
    </symbol>
    <symbol id="icon-pie-chart-02" viewBox="0 0 32 32">
      <path fill="none" stroke="#323f47" stroke-linecap="round" stroke-linejoin="round" stroke-width="2.667" d="M22.933 18.667c.369 0 .554 0 .704.082a.713.713 0 0 1 .293.324c.067.157.05.324.016.659a10.665 10.665 0 0 1-12.694 9.397 10.67 10.67 0 0 1-8.381-8.38 10.666 10.666 0 0 1 9.397-12.694c.334-.034.502-.05.659.016.13.055.257.17.324.293.082.15.082.334.082.704v8.533c0 .373 0 .56.073.703a.67.67 0 0 0 .291.291c.143.073.329.073.703.073h8.533z" opacity=".4" style="stroke:var(--color1, #323f47)"/>
      <path fill="none" stroke="#9be1a0" stroke-linecap="round" stroke-linejoin="round" stroke-width="2.667" d="M18.667 3.733c0-.369 0-.554.082-.704a.713.713 0 0 1 .324-.293c.157-.067.324-.05.659-.016a10.67 10.67 0 0 1 9.549 9.549c.033.334.05.502-.016.659a.704.704 0 0 1-.293.324c-.15.082-.334.082-.704.082h-8.533c-.373 0-.56 0-.703-.073a.67.67 0 0 1-.291-.291c-.073-.143-.073-.329-.073-.703V3.734z" opacity=".4" style="stroke:var(--color2, #9be1a0)"/>
    </symbol>
    <symbol id="icon-trash" viewBox="0 0 32 32">
      <path stroke-linecap="round" stroke-linejoin="round" stroke-width="2.971" d="M12 4h8M4 8h24m-2.667 0-.935 14.026c-.14 2.104-.21 3.156-.665 3.954a4 4 0 0 1-1.731 1.619c-.826.4-1.881.4-3.99.4h-4.025c-2.109 0-3.163 0-3.99-.4a4 4 0 0 1-1.731-1.619c-.455-.798-.525-1.85-.665-3.954L6.666 8"/>
    </symbol>
    <symbol id="icon-pen" viewBox="0 0 32 32">
      <path stroke-linecap="round" stroke-linejoin="round" stroke-width="2.971" d="M22.666 4a3.76 3.76 0 0 1 2.667-1.104A3.779 3.779 0 0 1 27.999 4a3.783 3.783 0 0 1 .818 4.109 3.743 3.743 0 0 1-.818 1.223l-18 18-7.333 2 2-7.333 18-18z"/>
    </symbol>
    <symbol id="icon-glass" viewBox="0 0 29 32">
      <path d="M28.631 2.277c-.119-.393-.319-.756-.587-1.064s-.598-.554-.968-.722a2.665 2.665 0 0 0-1.174-.257H3.066a2.34 2.34 0 0 0-1.174.241c-.378.17-.714.423-.984.74-.268.308-.468.67-.587 1.062A2.85 2.85 0 0 0 .21 3.484l2.603 22.527a6.337 6.337 0 0 0 2.047 3.991 6.06 6.06 0 0 0 4.079 1.609h11.109a6.088 6.088 0 0 0 4.094-1.609 6.461 6.461 0 0 0 2.031-3.991l1.412-12.663v-.193l1.095-9.654a3.269 3.269 0 0 0-.048-1.223zM12.603 26.976h-1.587a4.532 4.532 0 0 1-2.777-1.159 4.552 4.552 0 0 1-1.428-2.687l-.381-2.768c-.049-.422.067-.846.323-1.183a1.592 1.592 0 0 1 2.22-.315c.337.252.564.628.631 1.047l.381 2.735c.043.299.189.573.413.772.222.206.509.326.809.338h1.587c.421 0 .824.169 1.122.471s.465.711.465 1.138-.167.836-.465 1.138a1.575 1.575 0 0 1-1.122.471h-.19zm12.696-14.852c-3.348.66-6.205.788-9.236-1.609-3.761-3.009-8.316-2.044-12.696-.467l-.793-6.822a.461.461 0 0 1 0-.209.42.42 0 0 1 .111-.177.32.32 0 0 1 .159-.129.341.341 0 0 1 .19 0h23.043c.06.034.113.077.159.129a.373.373 0 0 1 .095.177.36.36 0 0 1 0 .225l-1.032 8.882z"/>
    </symbol>
    <symbol id="icon-Combined-Shape" viewBox="0 0 47 32">
      <path fill="#fff" style="fill: var(--color1, #fff)" d="M11.765 2.353c-3.898 0-7.059 3.16-7.059 7.059v4.398c0 3.898 3.16 7.059 7.059 7.059h8.367l3.351 4.073 3.351-4.073h8.461c3.898 0 7.059-3.16 7.059-7.059v-4.398c0-3.898-3.16-7.059-7.059-7.059h-23.529z"></path>
    </symbol>
    <symbol id="icon-log-out" viewBox="0 0 30 32">
<path stroke-linejoin="round" stroke-linecap="round" stroke-miterlimit="4" stroke-width="2.8235" d="M11.294 27.294h-5.020c-1.385-0.001-2.508-1.124-2.509-2.509v-17.57c0-1.386 1.123-2.509 2.509-2.509v0h5.020M20.077 22.274l6.276-6.274-6.276-6.274M26.353 16h-15.059"></path>
</symbol>
<symbol id="icon-settings" viewBox="0 0 30 32">
<path stroke-linejoin="round" stroke-linecap="round" stroke-miterlimit="4" stroke-width="2.8235" d="M15.059 19.765c2.079 0 3.765-1.686 3.765-3.765s-1.686-3.765-3.765-3.765v0c-2.079 0-3.765 1.686-3.765 3.765s1.686 3.765 3.765 3.765v0z"></path>
<path stroke-linejoin="round" stroke-linecap="round" stroke-miterlimit="4" stroke-width="2.8235" d="M24.344 19.765c-0.111 0.246-0.176 0.533-0.176 0.836 0 0.564 0.225 1.075 0.591 1.448l0.075 0.075c0.498 0.461 0.808 1.117 0.808 1.846 0 1.388-1.125 2.513-2.513 2.513-0.729 0-1.385-0.31-1.844-0.806l-0.002-0.002-0.075-0.075c-0.373-0.365-0.884-0.591-1.448-0.591-0.303 0-0.591 0.065-0.85 0.182l0.013-0.005c-0.742 0.324-1.252 1.050-1.256 1.895v0.213c0 1.386-1.123 2.509-2.509 2.509s-2.509-1.123-2.509-2.509v0-0.113c-0.021-0.868-0.572-1.602-1.341-1.891l-0.014-0.005c-0.246-0.111-0.533-0.176-0.836-0.176-0.564 0-1.075 0.225-1.448 0.591l-0.075 0.075c-0.455 0.46-1.086 0.745-1.784 0.745-1.386 0-2.509-1.123-2.509-2.509 0-0.35 0.072-0.684 0.202-0.987l-0.006 0.016c0.128-0.305 0.312-0.582 0.546-0.813l0.075-0.075c0.365-0.373 0.591-0.884 0.591-1.448 0-0.303-0.065-0.591-0.182-0.85l0.005 0.013c-0.324-0.741-1.050-1.251-1.895-1.254h-0.213c-1.387 0-2.511-1.124-2.511-2.511s1.124-2.511 2.511-2.511h0.113c0.867-0.021 1.6-0.573 1.889-1.341l0.005-0.014c0.111-0.246 0.176-0.533 0.176-0.836 0-0.564-0.225-1.075-0.591-1.448l-0.075-0.075c-0.454-0.455-0.735-1.082-0.735-1.776 0-1.388 1.125-2.512 2.512-2.512 0.694 0 1.322 0.281 1.777 0.736l0.075 0.075c0.373 0.365 0.884 0.591 1.448 0.591 0.303 0 0.591-0.065 0.85-0.182l-0.013 0.005h0.098c0.742-0.324 1.252-1.050 1.256-1.895v-0.213c0-1.386 1.123-2.509 2.509-2.509s2.509 1.123 2.509 2.509v0 0.113c0.003 0.846 0.513 1.572 1.242 1.89l0.013 0.005c0.246 0.111 0.533 0.176 0.836 0.176 0.564 0 1.075-0.225 1.448-0.591l0.075-0.075c0.456-0.463 1.090-0.75 1.79-0.75 1.387 0 2.511 1.124 2.511 2.511 0 0.7-0.287 1.334-0.749 1.789l-0.076 0.076c-0.365 0.373-0.591 0.884-0.591 1.448 0 0.303 0.065 0.591 0.182 0.85l-0.005-0.013v0.1c0.323 0.742 1.049 1.251 1.893 1.256h0.215c1.386 0 2.509 1.123 2.509 2.509s-1.123 2.509-2.509 2.509h-0.113c-0.846 0.003-1.572 0.513-1.89 1.242l-0.005 0.013z"></path>
</symbol>
  </defs>
</svg>
